{
  "accessors": [
    {
      "bufferView": 2,
      "componentType": 5126,
      "count": 2048,
      "max": [
        0.11375058442354202,
        0.32906392216682434,
        -0.9855737686157227
      ],
      "min": [
        -0.09484663605690002,
        -0.1466759443283081,
        -1.8966121673583984
      ],
      "type": "VEC3"
    },
    {
      "bufferView": 2,
      "byteOffset": 24576,
      "componentType": 5126,
      "count": 2048,
      "max": [
        0.999822199344635,
        0.9996950626373291,
        0.9972750544548035
      ],
      "min": [
        -0.9992523193359375,
        -0.9998731017112732,
        -0.9987604022026062
      ],
      "type": "VEC3"
    },
    {
      "bufferView": 1,
      "componentType": 5126,
      "count": 2048,
      "max": [
        0.9960939884185791,
        0.9960939884185791
      ],
      "min": [
        0.0039059999398887157,
        0.0030990242958068848
      ],
      "type": "VEC2"
    },
    {
      "bufferView": 1,
      "byteOffset": 16384,
      "componentType": 5126,
      "count": 2048,
      "max": [
        0.9960939884185791,
        0.9960939884185791
      ],
      "min": [
        0.0039059999398887157,
        0.0030990242958068848
      ],
      "type": "VEC2"
    },
    {
      "bufferView": 1,
      "byteOffset": 32768,
      "componentType": 5126,
      "count": 2048,
      "max": [
        0.9960939884185791,
        0.9960939884185791
      ],
      "min": [
        0.0039059999398887157,
        0.0030990242958068848
      ],
      "type": "VEC2"
    },
    {
      "bufferView": 0,
      "componentType": 5125,
      "count": 10410,
      "type": "SCALAR"
    },
    {
      "bufferView": 2,
      "byteOffset": 49152,
      "componentType": 5126,
      "count": 19378,
      "max": [
        0.37404680252075195,
        0.14567647874355316,
        0.008981939405202866
      ],
      "min": [
        -0.3740466237068176,
        -0.20828072726726532,
        -1.855861783027649
      ],
      "type": "VEC3"
    },
    {
      "bufferView": 2,
      "byteOffset": 281688,
      "componentType": 5126,
      "count": 19378,
      "max": [
        0.9998067021369934,
        0.9999872446060181,
        0.9998723864555359
      ],
      "min": [
        -0.999806821346283,
        -0.9998355507850647,
        -0.9999973773956299
      ],
      "type": "VEC3"
    },
    {
      "bufferView": 1,
      "byteOffset": 49152,
      "componentType": 5126,
      "count": 19378,
      "max": [
        1.9980469942092896,
        0.9980469942092896
      ],
      "min": [
        0.0019529999699443579,
        0.0012260079383850098
      ],
      "type": "VEC2"
    },
    {
      "bufferView": 1,
      "byteOffset": 204176,
      "componentType": 5126,
      "count": 19378,
      "max": [
        1.9980469942092896,
        0.9980469942092896
      ],
      "min": [
        0.0019529999699443579,
        0.0012260079383850098
      ],
      "type": "VEC2"
    },
    {
      "bufferView": 1,
      "byteOffset": 359200,
      "componentType": 5126,
      "count": 19378,
      "max": [
        1.9980469942092896,
        0.9980469942092896
      ],
      "min": [
        0.0019529999699443579,
        0.0012260079383850098
      ],
      "type": "VEC2"
    },
    {
      "bufferView": 0,
      "byteOffset": 41640,
      "componentType": 5125,
      "count": 95856,
      "type": "SCALAR"
    },
    {
      "bufferView": 2,
      "byteOffset": 514224,
      "componentType": 5126,
      "count": 134,
      "max": [
        0.05016222596168518,
        -0.10052762925624847,
        -1.6844760179519653
      ],
      "min": [
        -0.050161026418209076,
        -0.11423841863870621,
        -1.6995981931686401
      ],
      "type": "VEC3"
    },
    {
      "bufferView": 2,
      "byteOffset": 515832,
      "componentType": 5126,
      "count": 134,
      "max": [
        0.8765164613723755,
        -0.4648508131504059,
        0.61729896068573
      ],
      "min": [
        -0.8744496703147888,
        -0.9998791217803955,
        -0.09117276966571808
      ],
      "type": "VEC3"
    },
    {
      "bufferView": 1,
      "byteOffset": 514224,
      "componentType": 5126,
      "count": 134,
      "max": [
        0.984375,
        0.9824219942092896
      ],
      "min": [
        0.01523599959909916,
        0.061737000942230225
      ],
      "type": "VEC2"
    },
    {
      "bufferView": 1,
      "byteOffset": 515296,
      "componentType": 5126,
      "count": 134,
      "max": [
        0.984375,
        0.9824219942092896
      ],
      "min": [
        0.01523599959909916,
        0.061737000942230225
      ],
      "type": "VEC2"
    },
    {
      "bufferView": 1,
      "byteOffset": 516368,
      "componentType": 5126,
      "count": 134,
      "max": [
        0.984375,
        0.9824219942092896
      ],
      "min": [
        0.01523599959909916,
        0.061737000942230225
      ],
      "type": "VEC2"
    },
    {
      "bufferView": 0,
      "byteOffset": 425064,
      "componentType": 5125,
      "count": 396,
      "type": "SCALAR"
    },
    {
      "bufferView": 2,
      "byteOffset": 517440,
      "componentType": 5126,
      "count": 792,
      "max": [
        0.2889981269836426,
        0.1506660133600235,
        -0.8767359256744385
      ],
      "min": [
        -0.0746624767780304,
        -0.21544621884822845,
        -1.6469495296478271
      ],
      "type": "VEC3"
    },
    {
      "bufferView": 2,
      "byteOffset": 526944,
      "componentType": 5126,
      "count": 792,
      "max": [
        0.9983357787132263,
        1.0,
        0.9985767602920532
      ],
      "min": [
        -0.9983357787132263,
        -1.0,
        -0.9985767602920532
      ],
      "type": "VEC3"
    },
    {
      "bufferView": 1,
      "byteOffset": 517440,
      "componentType": 5126,
      "count": 792,
      "max": [
        0.6728519797325134,
        0.5068359971046448
      ],
      "min": [
        0.5893549919128418,
        0.423583984375
      ],
      "type": "VEC2"
    },
    {
      "bufferView": 1,
      "byteOffset": 523776,
      "componentType": 5126,
      "count": 792,
      "max": [
        0.6728519797325134,
        0.5068359971046448
      ],
      "min": [
        0.5893549919128418,
        0.423583984375
      ],
      "type": "VEC2"
    },
    {
      "bufferView": 1,
      "byteOffset": 530112,
      "componentType": 5126,
      "count": 792,
      "max": [
        0.6728519797325134,
        0.5068359971046448
      ],
      "min": [
        0.5893549919128418,
        0.423583984375
      ],
      "type": "VEC2"
    },
    {
      "bufferView": 0,
      "byteOffset": 426648,
      "componentType": 5125,
      "count": 4320,
      "type": "SCALAR"
    }
  ],
  "asset": {
    "extras": {
      "author": "Элона (https://sketchfab.com/Elona_4956)",
      "license": "CC-BY-4.0 (http://creativecommons.org/licenses/by/4.0/)",
      "source": "https://sketchfab.com/3d-models/valorant-sage-91526d9dbd4a4a4a9aa1f016fdb65f14",
      "title": "Valorant Sage"
    },
    "generator": "Sketchfab-15.30.0",
    "version": "2.0"
  },
  "bufferViews": [
    {
      "buffer": 0,
      "byteLength": 443928,
      "name": "floatBufferViews",
      "target": 34963
    },
    {
      "buffer": 0,
      "byteLength": 536448,
      "byteOffset": 443928,
      "byteStride": 8,
      "name": "floatBufferViews",
      "target": 34962
    },
    {
      "buffer": 0,
      "byteLength": 536448,
      "byteOffset": 980376,
      "byteStride": 12,
      "name": "floatBufferViews",
      "target": 34962
    }
  ],
  "buffers": [
    {
      "byteLength": 1516824,
      "uri": "scene.bin"
    }
  ],
  "extensionsRequired": [
    "KHR_materials_pbrSpecularGlossiness"
  ],
  "extensionsUsed": [
    "KHR_materials_pbrSpecularGlossiness"
  ],
  "images": [
    {
      "uri": "textures/material_diffuse.png"
    },
    {
      "uri": "textures/material_specularGlossiness.png"
    },
    {
      "uri": "textures/material_1_diffuse.png"
    },
    {
      "uri": "textures/material_2_diffuse.png"
    },
    {
      "uri": "textures/material_2_specularGlossiness.png"
    },
    {
      "uri": "textures/material_3_diffuse.png"
    }
  ],
  "materials": [
    {
      "doubleSided": true,
      "extensions": {
        "KHR_materials_pbrSpecularGlossiness": {
          "diffuseFactor": [
            1.0,
            1.0,
            1.0,
            1.0
          ],
          "diffuseTexture": {
            "index": 0
          },
          "glossinessFactor": 1.0,
          "specularFactor": [
            1.0,
            1.0,
            1.0
          ],
          "specularGlossinessTexture": {
            "index": 1
          }
        }
      },
      "name": "material"
    },
    {
      "doubleSided": true,
      "extensions": {
        "KHR_materials_pbrSpecularGlossiness": {
          "diffuseFactor": [
            1.0,
            1.0,
            1.0,
            1.0
          ],
          "diffuseTexture": {
            "index": 2
          },
          "glossinessFactor": 1.0,
          "specularFactor": [
            1.0,
            1.0,
            1.0
          ],
          "specularGlossinessTexture": {
            "index": 1
          }
        }
      },
      "name": "material_1"
    },
    {
      "alphaMode": "MASK",
      "doubleSided": true,
      "extensions": {
        "KHR_materials_pbrSpecularGlossiness": {
          "diffuseFactor": [
            1.0,
            1.0,
            1.0,
            1.0
          ],
          "diffuseTexture": {
            "index": 3
          },
          "glossinessFactor": 1.0,
          "specularFactor": [
            1.0,
            1.0,
            1.0
          ],
          "specularGlossinessTexture": {
            "index": 4
          }
        }
      },
      "name": "material_2"
    },
    {
      "doubleSided": true,
      "extensions": {
        "KHR_materials_pbrSpecularGlossiness": {
          "diffuseFactor": [
            1.0,
            1.0,
            1.0,
            1.0
          ],
          "diffuseTexture": {
            "index": 5
          },
          "glossinessFactor": 1.0,
          "specularFactor": [
            1.0,
            1.0,
            1.0
          ],
          "specularGlossinessTexture": {
            "index": 1
          }
        }
      },
      "name": "material_3"
    }
  ],
  "meshes": [
    {
      "name": "Object_0",
      "primitives": [
        {
          "attributes": {
            "NORMAL": 1,
            "POSITION": 0,
            "TEXCOORD_0": 2,
            "TEXCOORD_1": 3,
            "TEXCOORD_2": 4
          },
          "indices": 5,
          "material": 0,
          "mode": 4
        }
      ]
    },
    {
      "name": "Object_1",
      "primitives": [
        {
          "attributes": {
            "NORMAL": 7,
            "POSITION": 6,
            "TEXCOORD_0": 8,
            "TEXCOORD_1": 9,
            "TEXCOORD_2": 10
          },
          "indices": 11,
          "material": 1,
          "mode": 4
        }
      ]
    },
    {
      "name": "Object_2",
      "primitives": [
        {
          "attributes": {
            "NORMAL": 13,
            "POSITION": 12,
            "TEXCOORD_0": 14,
            "TEXCOORD_1": 15,
            "TEXCOORD_2": 16
          },
          "indices": 17,
          "material": 2,
          "mode": 4
        }
      ]
    },
    {
      "name": "Object_3",
      "primitives": [
        {
          "attributes": {
            "NORMAL": 19,
            "POSITION": 18,
            "TEXCOORD_0": 20,
            "TEXCOORD_1": 21,
            "TEXCOORD_2": 22
          },
          "indices": 23,
          "material": 3,
          "mode": 4
        }
      ]
    }
  ],
  "nodes": [
    {
      "children": [
        1
      ],
      "matrix": [
        1.0,
        0.0,
        0.0,
        0.0,
        0.0,
        2.220446049250313e-16,
        -1.0,
        0.0,
        0.0,
        1.0,
        2.220446049250313e-16,
        0.0,
        0.0,
        0.0,
        0.0,
        1.0
      ],
      "name": "Sketchfab_model"
    },
    {
      "children": [
        2
      ],
      "name": "root"
    },
    {
      "children": [
        3
      ],
      "matrix": [
        1.0,
        0.0,
        0.0,
        0.0,
        0.0,
        2.220446049250313e-16,
        1.0,
        0.0,
        0.0,
        -1.0,
        2.220446049250313e-16,
        0.0,
        0.0,
        0.0,
        0.0,
        1.0
      ],
      "name": "GLTF_SceneRootNode"
    },
    {
      "children": [
        4
      ],
      "name": "root_8"
    },
    {
      "children": [
        5
      ],
      "matrix": [
        -0.002726395148783922,
        0.0,
        -2.539153349384593e-12,
        0.0,
        0.0,
        0.002726395148783922,
        0.0,
        0.0,
        2.539153349384593e-12,
        0.0,
        -0.002726395148783922,
        0.0,
        0.14617657661437988,
        0.3969573676586151,
        0.8628893494606018,
        1.0
      ],
      "name": "node_id106_11"
    },
    {
      "children": [
        6
      ],
      "matrix": [
        268.6826171875,
        0.0,
        0.0,
        0.0,
        0.0,
        -0.00011324125280818653,
        268.6826171874761,
        0.0,
        0.0,
        -268.6826171874761,
        -0.00011324125280818653,
        0.0,
        4.755486488342285,
        -253.5867156982422,
        261.1363525390625,
        1.0
      ],
      "name": "node_id100_102"
    },
    {
      "children": [
        7,
        9,
        11,
        13
      ],
      "name": "node_id101_103"
    },
    {
      "children": [
        8
      ],
      "name": "_0"
    },
    {
      "mesh": 0,
      "name": "Object_8"
    },
    {
      "children": [
        10
      ],
      "name": "_1"
    },
    {
      "mesh": 1,
      "name": "Object_10"
    },
    {
      "children": [
        12
      ],
      "name": "_2"
    },
    {
      "mesh": 2,
      "name": "Object_12"
    },
    {
      "children": [
        14
      ],
      "name": "_3"
    },
    {
      "mesh": 3,
      "name": "Object_14"
    }
  ],
  "samplers": [
    {
      "magFilter": 9729,
      "minFilter": 9987,
      "wrapS": 10497,
      "wrapT": 10497
    }
  ],
  "scene": 0,
  "scenes": [
    {
      "name": "Sketchfab_Scene",
      "nodes": [
        0
      ]
    }
  ],
  "textures": [
    {
      "sampler": 0,
      "source": 0
    },
    {
      "sampler": 0,
      "source": 1
    },
    {
      "sampler": 0,
      "source": 2
    },
    {
      "sampler": 0,
      "source": 3
    },
    {
      "sampler": 0,
      "source": 4
    },
    {
      "sampler": 0,
      "source": 5
    }
  ]
}
